<?xml version="1.0" standalone="no"?>
<!DOCTYPE svg PUBLIC "-//W3C//DTD SVG 20010904//EN"
 "http://www.w3.org/TR/2001/REC-SVG-20010904/DTD/svg10.dtd">
<svg version="1.0" xmlns="http://www.w3.org/2000/svg"
 width="400.000000pt" height="400.000000pt" viewBox="0 0 400.000000 400.000000"
 preserveAspectRatio="xMidYMid meet">
<metadata>
Created by potrace 1.11, written by Peter Selinger 2001-2013
</metadata>
<g transform="translate(0.000000,400.000000) scale(0.100000,-0.100000)"
fill="#000000" stroke="none">
<path d="M1810 3639 c-25 -4 -74 -9 -110 -13 -36 -4 -72 -9 -80 -11 -8 -2 -26
-6 -40 -9 -30 -6 -117 -24 -145 -30 -68 -15 -281 -93 -372 -136 -94 -44 -299
-162 -313 -180 -3 -3 -27 -23 -55 -44 -291 -220 -507 -536 -590 -863 -34 -135
-40 -187 -40 -348 0 -166 6 -217 40 -350 80 -315 261 -594 537 -828 83 -70
190 -141 328 -219 163 -93 498 -202 684 -224 28 -3 53 -7 56 -9 9 -6 213 -18
290 -18 76 0 291 12 299 17 3 2 30 7 60 10 29 4 56 8 60 10 3 2 24 7 45 10
139 22 363 99 525 180 593 295 955 824 959 1399 0 113 -4 164 -23 282 -14 91
-64 243 -112 345 -225 471 -694 830 -1268 971 -66 16 -140 32 -165 35 -25 3
-56 7 -70 9 -85 13 -153 18 -295 19 -88 1 -180 -1 -205 -5z"/>
</g>
</svg>
